<svg xmlns="http://www.w3.org/2000/svg" version="1.1" xmlns:xlink="http://www.w3.org/1999/xlink" width="100" height="100" x="0" y="0" viewBox="0 0 64 64" style="enable-background:new 0 0 512 512" xml:space="preserve" class=""><g><g xmlns="http://www.w3.org/2000/svg" id="Exp-2.-F"><path d="m51.791 24.617h-37c-.796 0-1.559.316-2.122.879-.562.562-.878 1.325-.878 2.121v6h40z" fill="#b39ddb" data-original="#b39ddb" class=""></path><path d="m11.791 28.303h40v1.863h-40z" fill="#7e57c2" data-original="#7e57c2" class=""></path><path d="m51.791 23.696c0-.795-.316-1.558-.879-2.121-.563-.562-1.326-.879-2.121-.879-3.581 0-9.48 0-12.638 0-1.287 0-2.43.821-2.842 2.04-.578 1.713-1.311 3.881-1.311 3.881h19.791z" fill="#b39ddb" data-original="#b39ddb" class=""></path><path d="m54.279 34.234c.18-1.154-.154-2.33-.914-3.218s-1.87-1.399-3.039-1.399c-8.821 0-27.831 0-36.652 0-1.169 0-2.279.511-3.039 1.399s-1.094 2.064-.914 3.218c1.018 6.512 2.85 18.238 3.75 24 .305 1.948 1.982 3.383 3.953 3.383h29.152c1.971 0 3.648-1.435 3.953-3.383.9-5.762 2.732-17.488 3.75-24z" fill="#d1c4e9" data-original="#d1c4e9"></path><path d="m9.721 34.234.513 3.28c-.181-1.155.216-2.331.976-3.219s1.87-1.399 3.039-1.399h35.502c1.169 0 2.279.511 3.039 1.399s1.157 2.064.976 3.219l.513-3.28c.18-1.154-.154-2.33-.914-3.218s-1.87-1.399-3.039-1.399c-8.821 0-27.831 0-36.652 0-1.169 0-2.279.511-3.039 1.399s-1.094 2.064-.914 3.218z" fill="#ede7f6" data-original="#ede7f6"></path><g fill="#9575cd"><path d="m29.715 53.464c0-1.104-.895-2-2-2-2.219 0-5.78 0-8 0-1.104 0-2 .896-2 2v2c0 1.105.896 2 2 2h8c1.105 0 2-.895 2-2 0-.643 0-1.356 0-2z" fill="#9575cd" data-original="#9575cd"></path><path d="m23.557 25.826c-.044-.282-.065-.56-.064-.834.002-.551-.444-1.001-.996-1.004-.552-.002-1.002.444-1.004.996-.002.378.027.763.089 1.153.085.545.598.918 1.143.832.545-.085.918-.598.832-1.143z" fill="#9575cd" data-original="#9575cd"></path><path d="m24.607 21.993c.196-.23.416-.446.66-.648.425-.352.485-.982.133-1.408-.352-.425-.982-.485-1.408-.133-.335.277-.638.576-.908.892-.358.421-.307 1.052.113 1.41s1.052.307 1.41-.113z" fill="#9575cd" data-original="#9575cd"></path><path d="m28.376 19.902c.404-.091.83-.159 1.277-.204.549-.055.95-.545.895-1.094s-.545-.951-1.094-.896c-.53.053-1.036.135-1.516.243-.539.121-.878.656-.757 1.194.121.539.656.878 1.195.757z" fill="#9575cd" data-original="#9575cd"></path><path d="m33.495 19.694c.61.016 1.189.011 1.741-.012.551-.023.98-.49.957-1.041s-.489-.98-1.041-.957c-.509.021-1.044.025-1.606.011-.552-.014-1.011.423-1.025.974-.014.552.423 1.011.974 1.025z" fill="#9575cd" data-original="#9575cd"></path><path d="m39.368 19.055c.645-.187 1.227-.41 1.749-.66.497-.239.707-.837.468-1.335-.239-.497-.837-.707-1.334-.468-.43.206-.909.388-1.441.543-.53.154-.835.709-.681 1.239s.709.835 1.239.681z" fill="#9575cd" data-original="#9575cd"></path><path d="m44.122 15.939c.478-.682.79-1.409.962-2.144.126-.538-.209-1.076-.746-1.202-.537-.125-1.076.209-1.201.746-.117.498-.329.99-.653 1.452-.316.452-.207 1.076.245 1.393s1.077.207 1.393-.245z" fill="#9575cd" data-original="#9575cd"></path><path d="m44.715 9.783c-.443-1.033-1.137-1.903-1.961-2.471-.455-.314-1.078-.199-1.391.255-.314.454-.199 1.078.255 1.391.535.369.972.944 1.259 1.614.218.508.807.743 1.314.525s.742-.806.524-1.314z" fill="#9575cd" data-original="#9575cd"></path></g><path d="m31.891 6.831c1.082-6.127 10.459-5.731 5 0z" fill="#d1c4e9" data-original="#d1c4e9"></path><path d="m31.891 8.383c1.082 6.126 10.459 5.731 5 0z" fill="#d1c4e9" data-original="#d1c4e9"></path><path d="m31.801 8.617h6.696c.552 0 1-.448 1-1s-.448-1-1-1h-6.696c-.551 0-1 .448-1 1s.449 1 1 1z" fill="#9575cd" data-original="#9575cd"></path></g></g></svg>