<svg xmlns="http://www.w3.org/2000/svg" version="1.1" xmlns:xlink="http://www.w3.org/1999/xlink"  width="130" height="130" x="0" y="0" viewBox="0 0 64 64" style="enable-background:new 0 0 512 512" xml:space="preserve" class=""><g><g xmlns="http://www.w3.org/2000/svg" id="Exp-2.-F"><path d="m55 14.327h-43c-1.657 0-3 1.343-3 3v6h46z" fill="#B39DDB" data-original="#B39DDB" class=""></path><path d="m55 12.64c0-1.657-1.343-3-3-3-4.229 0-11.853 0-15.679 0-1.435 0-2.761.769-3.473 2.015-1.181 2.068-2.848 4.985-2.848 4.985h25z" fill="#B39DDB" data-original="#B39DDB" class=""></path><path d="m9 17.138h46v1.863h-46z" fill="#7E57C2" data-original="#7E57C2"></path><path d="m58.368 22.911c.159-1.146-.186-2.305-.945-3.177-.76-.873-1.86-1.374-3.017-1.374-10.196 0-34.616 0-44.812 0-1.157 0-2.257.501-3.017 1.374-.759.872-1.104 2.031-.945 3.177 1.014 7.3 2.982 21.468 3.889 28 .275 1.977 1.965 3.449 3.962 3.449h37.034c1.997 0 3.687-1.472 3.962-3.449.907-6.532 2.875-20.7 3.889-28z" fill="#D1C4E9" data-original="#D1C4E9" class=""></path><path d="m5.968 25.331c.075-.833.409-1.629.968-2.271.759-.872 1.859-1.373 3.016-1.373h44.096c1.157 0 2.257.501 3.016 1.373.559.642.893 1.438.968 2.271l.336-2.42c.159-1.146-.186-2.305-.945-3.177-.76-.873-1.86-1.374-3.017-1.374-10.196 0-34.616 0-44.812 0-1.157 0-2.257.501-3.017 1.374-.759.872-1.104 2.031-.945 3.177z" fill="#EDE7F6" data-original="#EDE7F6"></path><g fill="#9575CD"><path d="m27.501 44.386c0-1.104-.895-2-2-2-2.219 0-5.78 0-8 0-1.104 0-2 .896-2 2v2c0 1.105.896 2 2 2h8c1.105 0 2-.895 2-2 0-.643 0-1.356 0-2z" fill="#9575CD" data-original="#9575CD" class=""></path><path d="m42.5 25.6c-5.795 0-10.5 4.705-10.5 10.5s4.705 10.5 10.5 10.5 10.5-4.705 10.5-10.5-4.705-10.5-10.5-10.5zm0 3c4.139 0 7.5 3.361 7.5 7.5s-3.361 7.5-7.5 7.5-7.5-3.361-7.5-7.5 3.361-7.5 7.5-7.5z" fill="#9575CD" data-original="#9575CD" class=""></path><path d="m47.969 43.351 9.328 9.328c.586.586 1.536.586 2.122 0 .585-.585.585-1.536 0-2.121l-9.328-9.328c-.586-.585-1.536-.585-2.122 0-.585.585-.585 1.536 0 2.121z" fill="#9575CD" data-original="#9575CD" class=""></path></g></g></g></svg>